<mxfile host="app.diagrams.net" agent="Mozilla/5.0 (Macintosh; Intel Mac OS X 10_15_7) AppleWebKit/537.36 (KHTML, like Gecko) Chrome/139.0.0.0 Safari/537.36" version="27.0.6">
  <diagram name="PÃ¡gina-1" id="fogcQiVZ8MdpIrBAE4no">
    <mxGraphModel dx="1018" dy="689" grid="1" gridSize="10" guides="1" tooltips="1" connect="1" arrows="1" fold="1" page="1" pageScale="1" pageWidth="827" pageHeight="1169" math="0" shadow="0">
      <root>
        <mxCell id="0" />
        <mxCell id="1" parent="0" />
        <mxCell id="-rCbSdmQEMPzYNNSQAN7-9" value="" style="edgeStyle=orthogonalEdgeStyle;rounded=0;orthogonalLoop=1;jettySize=auto;html=1;" edge="1" parent="1" source="-rCbSdmQEMPzYNNSQAN7-3" target="-rCbSdmQEMPzYNNSQAN7-4">
          <mxGeometry relative="1" as="geometry" />
        </mxCell>
        <mxCell id="-rCbSdmQEMPzYNNSQAN7-3" value="Controller" style="rounded=1;whiteSpace=wrap;html=1;" vertex="1" parent="1">
          <mxGeometry x="50" y="290" width="120" height="60" as="geometry" />
        </mxCell>
        <mxCell id="-rCbSdmQEMPzYNNSQAN7-8" value="" style="edgeStyle=orthogonalEdgeStyle;rounded=0;orthogonalLoop=1;jettySize=auto;html=1;" edge="1" parent="1" source="-rCbSdmQEMPzYNNSQAN7-4" target="-rCbSdmQEMPzYNNSQAN7-5">
          <mxGeometry relative="1" as="geometry" />
        </mxCell>
        <mxCell id="-rCbSdmQEMPzYNNSQAN7-4" value="Service" style="rounded=1;whiteSpace=wrap;html=1;" vertex="1" parent="1">
          <mxGeometry x="250" y="290" width="120" height="60" as="geometry" />
        </mxCell>
        <mxCell id="-rCbSdmQEMPzYNNSQAN7-7" style="edgeStyle=orthogonalEdgeStyle;rounded=0;orthogonalLoop=1;jettySize=auto;html=1;" edge="1" parent="1" source="-rCbSdmQEMPzYNNSQAN7-5" target="-rCbSdmQEMPzYNNSQAN7-6">
          <mxGeometry relative="1" as="geometry" />
        </mxCell>
        <mxCell id="-rCbSdmQEMPzYNNSQAN7-5" value="Repository" style="rounded=1;whiteSpace=wrap;html=1;" vertex="1" parent="1">
          <mxGeometry x="430" y="290" width="120" height="60" as="geometry" />
        </mxCell>
        <mxCell id="-rCbSdmQEMPzYNNSQAN7-6" value="DB Postgres" style="rounded=1;whiteSpace=wrap;html=1;" vertex="1" parent="1">
          <mxGeometry x="640" y="290" width="120" height="60" as="geometry" />
        </mxCell>
        <mxCell id="-rCbSdmQEMPzYNNSQAN7-10" value="API Cliente" style="swimlane;whiteSpace=wrap;html=1;" vertex="1" parent="1">
          <mxGeometry x="30" y="170" width="760" height="290" as="geometry" />
        </mxCell>
      </root>
    </mxGraphModel>
  </diagram>
</mxfile>
